Coordinates
version=1
nRows=38
nColumns=12
inDegrees=yes

Units are S.I. units (second, meters, Newtons, ...)
Angles are in degrees

endheader
time	SC_y	SC_z	SC_x	AC_y	AC_z	AC_x	GH_y	GH_z	GH_yy	EL_x	PS_y
       0.0              -44.46          24.59          18.17          33.46         -5.463         -8.881          146.3           14.0         -1.269          92.15          126.7
   0.03832              -44.46          24.58          18.17          33.47         -5.461         -8.879          146.3           14.0         -1.244          92.13          126.7
   0.07664              -44.46          24.58          18.17          33.47         -5.459         -8.876          146.3          14.01         -1.217          92.12          126.7
     0.115              -44.46          24.58          18.17          33.48         -5.456         -8.874          146.3          14.01         -1.189          92.11          126.7
    0.1533              -44.46          24.58          18.17          33.48         -5.454         -8.871          146.2          14.02         -1.159          92.09          126.7
    0.1916              -44.46          24.58          18.16          33.49         -5.451         -8.868          146.2          14.03         -1.126          92.08          126.6
    0.2299              -44.47          24.58          18.16          33.49         -5.448         -8.865          146.2          14.04         -1.092          92.06          126.6
    0.2682              -44.47          24.57          18.16           33.5         -5.445         -8.861          146.1          14.04         -1.055          92.04          126.6
    0.3066              -44.47          24.57          18.16          33.51         -5.442         -8.858          146.1          14.05         -1.016          92.02          126.6
    0.3449              -44.47          24.57          18.16          33.51         -5.438         -8.854          146.1          14.06        -0.9735           92.0          126.5
    0.3832              -44.48          24.57          18.16          33.52         -5.434         -8.849          146.0          14.07        -0.9281          91.98          126.5
    0.4215              -44.48          24.57          18.15          33.53          -5.43         -8.845          146.0          14.08        -0.8792          91.96          126.5
    0.4598              -44.48          24.56          18.15          33.54         -5.426          -8.84          146.0           14.1        -0.8265          91.93          126.4
    0.4981              -44.48          24.56          18.15          33.55         -5.421         -8.835          145.9          14.11        -0.7696           91.9          126.4
    0.5365              -44.49          24.56          18.15          33.56         -5.416         -8.829          145.9          14.12        -0.7081          91.87          126.4
    0.5748              -44.49          24.55          18.14          33.57          -5.41         -8.822          145.8          14.14        -0.6413          91.84          126.3
    0.6131               -44.5          24.55          18.14          33.58         -5.404         -8.816          145.7          14.16        -0.5688           91.8          126.3
    0.6514               -44.5          24.54          18.14           33.6         -5.397         -8.808          145.7          14.17        -0.4897          91.76          126.2
    0.6897               -44.5          24.54          18.13          33.61          -5.39           -8.8          145.6          14.19        -0.4034          91.72          126.2
    0.7281              -44.51          24.53          18.13          33.63         -5.382         -8.791          145.5          14.22        -0.3089          91.68          126.1
    0.7664              -44.51          24.53          18.12          33.65         -5.373         -8.782          145.4          14.24        -0.2051          91.62          126.0
    0.8047              -44.52          24.52          18.12          33.66         -5.363         -8.771          145.3          14.27       -0.09089          91.57          126.0
     0.843              -44.53          24.52          18.11          33.69         -5.353         -8.759          145.2          14.29        0.03526          91.51          125.9
    0.8813              -44.54          24.51          18.11          33.71         -5.341         -8.746          145.1          14.33          0.175          91.44          125.8
    0.9197              -44.54           24.5           18.1          33.74         -5.328         -8.731          145.0          14.36         0.3304          91.36          125.7
     0.958              -44.55          24.49          18.09          33.77         -5.313         -8.715          144.8           14.4         0.5038          91.28          125.6
    0.9963              -44.56          24.48          18.08           33.8         -5.297         -8.697          144.7          14.45          0.698          91.18          125.4
     1.035              -44.58          24.47          18.07          33.84         -5.278         -8.676          144.5           14.5         0.9165          91.07          125.3
     1.073              -44.59          24.46          18.06          33.88         -5.257         -8.653          144.3          14.55          1.163          90.95          125.1
     1.111               -44.6          24.44          18.05          33.92         -5.233         -8.627          144.1          14.62          1.444          90.82          124.9
      1.15              -44.62          24.43          18.03          33.98         -5.206         -8.597          143.8          14.69          1.764          90.66          124.7
     1.188              -44.64          24.41          18.02          34.04         -5.175         -8.563          143.5          14.77          2.131          90.48          124.5
     1.226              -44.66          24.38           18.0          34.11         -5.139         -8.523          143.1          14.87          2.555          90.27          124.2
     1.265              -44.69          24.36          17.97           34.2         -5.098         -8.477          142.7          14.98          3.047          90.03          123.9
     1.303              -44.72          24.33          17.95          34.29         -5.049         -8.423          142.2          15.12          3.624          89.75          123.5
     1.341              -44.76          24.29          17.92          34.41         -4.992         -8.359          141.7          15.27          4.303          89.41          123.0
     1.379               -44.8          24.25          17.88          34.55         -4.923         -8.283          141.0          15.46           5.11          89.02          122.5
     1.418              -44.86           24.2          17.84          34.71         -4.841         -8.193          140.2          15.68          6.078          88.54          121.8
